<?xml version="1.0" encoding="UTF-8"?>
<svg width="512" height="512" viewBox="0 0 512 512" xmlns="http://www.w3.org/2000/svg" role="img" aria-labelledby="title desc">
  <title id="title">Building Icon</title>
  <desc id="desc">A clean, front‑facing city building icon with windows and a door.</desc>
  <defs>
    <linearGradient id="tower" x1="0" y1="0" x2="0" y2="1">
      <stop offset="0%" stop-color="#64748b"/>
      <stop offset="100%" stop-color="#475569"/>
    </linearGradient>
    <linearGradient id="wing" x1="0" y1="0" x2="0" y2="1">
      <stop offset="0%" stop-color="#94a3b8"/>
      <stop offset="100%" stop-color="#64748b"/>
    </linearGradient>
  </defs>

  <!-- Ground shadow -->
  <ellipse cx="256" cy="440" rx="150" ry="22" fill="#000" opacity="0.06"/>

  <!-- Side wing building (left) -->
  <rect x="56" y="220" width="110" height="220" rx="6" fill="url(#wing)"/>
  <!-- Wing windows (2 x 4) -->
  <rect x="72" y="238" width="30" height="30" rx="3" fill="#e5e7eb"/>
  <rect x="112" y="238" width="30" height="30" rx="3" fill="#e5e7eb"/>
  <rect x="72" y="278" width="30" height="30" rx="3" fill="#e5e7eb"/>
  <rect x="112" y="278" width="30" height="30" rx="3" fill="#e5e7eb"/>
  <rect x="72" y="318" width="30" height="30" rx="3" fill="#e5e7eb"/>
  <rect x="112" y="318" width="30" height="30" rx="3" fill="#e5e7eb"/>
  <rect x="72" y="358" width="30" height="30" rx="3" fill="#e5e7eb"/>
  <rect x="112" y="358" width="30" height="30" rx="3" fill="#e5e7eb"/>

  <!-- Main tower -->
  <rect x="156" y="140" width="200" height="300" rx="10" fill="url(#tower)"/>
  <!-- Roof detail / ledge -->
  <rect x="166" y="150" width="180" height="10" rx="4" fill="#334155" opacity="0.8"/>
  <!-- Antenna -->
  <rect x="252" y="112" width="8" height="28" fill="#334155"/>
  <rect x="244" y="108" width="24" height="6" rx="3" fill="#94a3b8"/>

  <!-- Tower windows (4 x 6 grid) -->
  <!-- Row 1 -->
  <rect x="176" y="170" width="26" height="26" rx="3" fill="#f1f5f9"/>
  <rect x="220" y="170" width="26" height="26" rx="3" fill="#f1f5f9"/>
  <rect x="264" y="170" width="26" height="26" rx="3" fill="#f1f5f9"/>
  <rect x="308" y="170" width="26" height="26" rx="3" fill="#f1f5f9"/>
  <!-- Row 2 -->
  <rect x="176" y="214" width="26" height="26" rx="3" fill="#e2e8f0"/>
  <rect x="220" y="214" width="26" height="26" rx="3" fill="#e2e8f0"/>
  <rect x="264" y="214" width="26" height="26" rx="3" fill="#e2e8f0"/>
  <rect x="308" y="214" width="26" height="26" rx="3" fill="#e2e8f0"/>
  <!-- Row 3 -->
  <rect x="176" y="258" width="26" height="26" rx="3" fill="#f1f5f9"/>
  <rect x="220" y="258" width="26" height="26" rx="3" fill="#f1f5f9"/>
  <rect x="264" y="258" width="26" height="26" rx="3" fill="#f1f5f9"/>
  <rect x="308" y="258" width="26" height="26" rx="3" fill="#f1f5f9"/>
  <!-- Row 4 -->
  <rect x="176" y="302" width="26" height="26" rx="3" fill="#e2e8f0"/>
  <rect x="220" y="302" width="26" height="26" rx="3" fill="#e2e8f0"/>
  <rect x="264" y="302" width="26" height="26" rx="3" fill="#e2e8f0"/>
  <rect x="308" y="302" width="26" height="26" rx="3" fill="#e2e8f0"/>
  <!-- Row 5 -->
  <rect x="176" y="346" width="26" height="26" rx="3" fill="#f1f5f9"/>
  <rect x="220" y="346" width="26" height="26" rx="3" fill="#f1f5f9"/>
  <rect x="264" y="346" width="26" height="26" rx="3" fill="#f1f5f9"/>
  <rect x="308" y="346" width="26" height="26" rx="3" fill="#f1f5f9"/>
  <!-- Row 6 -->
  <rect x="176" y="390" width="26" height="26" rx="3" fill="#e2e8f0"/>
  <rect x="220" y="390" width="26" height="26" rx="3" fill="#e2e8f0"/>
  <rect x="264" y="390" width="26" height="26" rx="3" fill="#e2e8f0"/>
  <rect x="308" y="390" width="26" height="26" rx="3" fill="#e2e8f0"/>

  <!-- Door -->
  <rect x="230" y="370" width="52" height="70" rx="6" fill="#334155"/>
  <circle cx="272" cy="406" r="4" fill="#f8fafc"/>
</svg>

