<?xml version="1.0" encoding="UTF-8"?>
<svg width="512" height="512" viewBox="0 0 512 512" xmlns="http://www.w3.org/2000/svg" role="img" aria-labelledby="title desc">
  <title id="title">Duck Icon</title>
  <desc id="desc">A simple, friendly front‑facing duck icon suitable for app icons and favicons.</desc>
  <defs>
    <linearGradient id="duckBody" x1="0" y1="0" x2="0" y2="1">
      <stop offset="0%" stop-color="#fde047"/>
      <stop offset="100%" stop-color="#facc15"/>
    </linearGradient>
  </defs>

  <!-- Body (front view) -->
  <ellipse cx="256" cy="340" rx="170" ry="115" fill="url(#duckBody)"/>

  <!-- Head (front view) -->
  <circle cx="256" cy="210" r="110" fill="#fde047"/>

  <!-- Eyes -->
  <circle cx="216" cy="200" r="10" fill="#111827"/>
  <circle cx="296" cy="200" r="10" fill="#111827"/>

  <!-- Beak (front) -->
  <!-- Upper beak -->
  <ellipse cx="256" cy="238" rx="64" ry="28" fill="#fb923c"/>
  <!-- Lower beak -->
  <ellipse cx="256" cy="258" rx="58" ry="22" fill="#f97316"/>

  <!-- Wing hints on body (subtle) -->
  <path d="M150 330c28-24 70-36 106-30 6 1 10 7 9 13-1 6-6 10-12 9-28-4-54 3-77 18-10 7-22 3-26-8-2-6 0-12 0-2z" fill="#eab308" opacity="0.6"/>
  <path d="M362 330c-28-24-70-36-106-30-6 1-10 7-9 13 1 6 6 10 12 9 28-4 54 3 77 18 10 7 22 3 26-8 2-6 0-12 0-2z" fill="#eab308" opacity="0.6"/>

  <!-- Ground shadow -->
  <ellipse cx="256" cy="408" rx="130" ry="22" fill="#000" opacity="0.06"/>
</svg>

