<?xml version="1.0" encoding="UTF-8"?>
<svg width="512" height="512" viewBox="0 0 512 512" xmlns="http://www.w3.org/2000/svg" role="img" aria-labelledby="title desc">
  <title id="title">To‑Do / Tasks Icon</title>
  <desc id="desc">A bold, modern tasks icon with a gradient background, clipboard header, and stylish check rows.</desc>
  <defs>
    <linearGradient id="bgGrad" x1="0" y1="0" x2="1" y2="1">
      <stop offset="0%" stop-color="#0ea5e9"/>
      <stop offset="100%" stop-color="#6366f1"/>
    </linearGradient>
  </defs>

  <!-- Vibrant backdrop -->
  <rect x="40" y="40" width="432" height="432" rx="64" fill="url(#bgGrad)"/>

  <!-- Paper (slight card look) -->
  <rect x="136" y="108" width="240" height="296" rx="22" fill="#ffffff" stroke="#e2e8f0" stroke-width="8"/>
  <!-- Clipboard clip -->
  <rect x="210" y="88" width="92" height="32" rx="16" fill="#e2e8f0" stroke="#cbd5e1" stroke-width="6"/>

  <!-- Row 1 -->
  <circle cx="176" cy="176" r="18" fill="#22c55e"/>
  <path d="M168 176 l 8 8 l 16 -16" stroke="#ffffff" stroke-width="6" fill="none" stroke-linecap="round" stroke-linejoin="round"/>
  <rect x="206" y="168" width="156" height="16" rx="8" fill="#94a3b8"/>

  <!-- Row 2 (in-progress pill) -->
  <circle cx="176" cy="224" r="18" fill="#f59e0b"/>
  <rect x="206" y="216" width="170" height="16" rx="8" fill="#94a3b8"/>
  <rect x="206" y="216" width="90" height="16" rx="8" fill="#fbbf24"/>

  <!-- Row 3 -->
  <circle cx="176" cy="272" r="18" fill="#6366f1"/>
  <path d="M168 272 l 8 8 l 16 -16" stroke="#ffffff" stroke-width="6" fill="none" stroke-linecap="round" stroke-linejoin="round"/>
  <rect x="206" y="264" width="138" height="16" rx="8" fill="#cbd5e1"/>

  <!-- Row 4 (empty) -->
  <circle cx="176" cy="320" r="18" fill="#ffffff" stroke="#e5e7eb" stroke-width="6"/>
  <rect x="206" y="312" width="150" height="16" rx="8" fill="#cbd5e1"/>

  <!-- Call to action pill -->
  <rect x="200" y="364" width="112" height="18" rx="9" fill="#e2e8f0"/>

  <!-- Sparkles -->
  <path d="M356 140 l 6 12 l 12 6 l -12 6 l -6 12 l -6 -12 l -12 -6 l 12 -6 z" fill="#ffffff" opacity="0.85"/>
  <path d="M332 120 l 4 8 l 8 4 l -8 4 l -4 8 l -4 -8 l -8 -4 l 8 -4 z" fill="#e0e7ff" opacity="0.9"/>

  <!-- Soft shadow under card -->
  <ellipse cx="256" cy="420" rx="120" ry="18" fill="#000" opacity="0.08"/>
</svg>
